<?xml version="1.0" encoding="UTF-8" standalone="no"?>
<svg
   xmlns:dc="http://purl.org/dc/elements/1.1/"
   xmlns:cc="http://creativecommons.org/ns#"
   xmlns:rdf="http://www.w3.org/1999/02/22-rdf-syntax-ns#"
   xmlns:svg="http://www.w3.org/2000/svg"
   xmlns="http://www.w3.org/2000/svg"
   viewBox="10 18 210 80"
   height="60"
   width="210"
   xml:space="preserve"
   id="svg2"
   version="1.1"><metadata
     id="metadata8"><rdf:RDF><cc:Work
         rdf:about=""><dc:format>image/svg+xml</dc:format><dc:type
           rdf:resource="http://purl.org/dc/dcmitype/StillImage" /></cc:Work></rdf:RDF></metadata><defs
     id="defs6"><clipPath
       id="clipPath18"
       clipPathUnits="userSpaceOnUse"><path
         id="path16"
         d="M 0,84 H 171.398 V 0 H 0 Z" /></clipPath></defs><g
     transform="matrix(1.3333333,0,0,-1.3333333,0,112)"
     id="g10"><g
       id="g12"><g
         clip-path="url(#clipPath18)"
         id="g14"><g
           transform="translate(156.7891,47.4899)"
           id="g20"><path
             id="path22"
             style="fill:#0b558c;fill-opacity:1;fill-rule:evenodd;stroke:none"
             d="m 0,0 v 8.236 c 0,4.53 -3.707,8.236 -8.235,8.236 l -8.238,10e-4 c -1.515,0 -2.744,1.228 -2.744,2.744 0,1.515 1.229,2.744 2.744,2.744 h 8.238 C -0.686,21.961 5.49,15.784 5.49,8.236 L 5.489,0 C 5.489,-1.516 4.261,-2.744 2.745,-2.744 1.229,-2.744 0,-1.516 0,0" /></g><g
           transform="translate(156.7891,36.5124)"
           id="g24"><path
             id="path26"
             style="fill:#040606;fill-opacity:1;fill-rule:evenodd;stroke:none"
             d="m 0,0 v -8.238 c 0,-4.53 -3.706,-8.236 -8.235,-8.236 h -27.453 c -4.529,0 -8.235,3.706 -8.235,8.236 v 27.452 c 0,4.528 3.707,8.235 8.235,8.235 l 8.237,10e-4 c 1.515,0 2.745,1.229 2.745,2.744 0,1.516 -1.23,2.744 -2.745,2.744 h -8.237 c -7.548,0 -13.724,-6.175 -13.724,-13.724 V -8.238 c 0,-7.549 6.176,-13.726 13.724,-13.726 h 27.453 c 7.548,0 13.725,6.177 13.725,13.726 L 5.489,0 C 5.489,1.516 4.261,2.744 2.745,2.744 1.229,2.744 0,1.516 0,0" /></g><g
           transform="translate(36.6279,57.6413)"
           id="g28"><path
             id="path30"
             style="fill:#231f20;fill-opacity:1;fill-rule:nonzero;stroke:none"
             d="m 0,0 c 0,5.368 3.451,8.596 9.426,8.596 4.665,0 7.636,-1.789 8.946,-5.368 0.32,-0.799 0.065,-1.374 -0.799,-1.662 L 15.113,0.703 C 14.187,0.416 13.804,0.575 13.452,1.502 12.845,3.067 11.503,3.834 9.426,3.834 6.614,3.834 5.208,2.557 5.208,0.032 v -6.518 c 0,-2.524 1.406,-3.802 4.218,-3.802 2.077,0 3.419,0.767 4.026,2.333 0.352,0.926 0.767,1.149 1.661,0.798 l 2.46,-0.863 c 0.864,-0.287 1.119,-0.863 0.799,-1.662 -1.31,-3.578 -4.281,-5.367 -8.946,-5.367 -5.975,0 -9.426,3.227 -9.426,8.595 z" /></g><g
           transform="translate(74.458,65.7575)"
           id="g32"><path
             id="path34"
             style="fill:#231f20;fill-opacity:1;fill-rule:nonzero;stroke:none"
             d="m 0,0 c 0.991,0 1.278,-0.319 1.278,-1.31 v -20.066 c 0,-0.99 -0.287,-1.311 -1.278,-1.311 h -2.588 c -0.99,0 -1.309,0.321 -1.309,1.311 v 16.647 h -7.541 v -16.647 c 0,-0.99 -0.32,-1.311 -1.31,-1.311 h -2.589 c -0.99,0 -1.309,0.321 -1.309,1.311 V -1.31 c 0,0.991 0.319,1.31 1.309,1.31 z" /></g><g
           transform="translate(89.3154,52.7848)"
           id="g36"><path
             id="path38"
             style="fill:#231f20;fill-opacity:1;fill-rule:nonzero;stroke:none"
             d="M 0,0 H -4.441 V -5.081 H 0 c 1.661,0 2.652,0.991 2.652,2.525 C 2.652,-0.991 1.661,0 0,0 m 5.176,12.973 c 0.991,0 1.31,-0.32 1.31,-1.31 V 9.649 c 0,-0.926 -0.319,-1.31 -1.31,-1.31 H -4.441 V 4.633 h 5.175 c 4.442,0 7.286,-2.747 7.286,-7.189 0,-4.378 -2.844,-7.158 -7.286,-7.158 h -9.105 c -0.927,0 -1.278,0.32 -1.278,1.246 v 20.131 c 0,0.99 0.319,1.31 1.309,1.31 z" /></g><g
           transform="translate(30.0479,37.8249)"
           id="g40"><path
             id="path42"
             style="fill:#0b558c;fill-opacity:1;fill-rule:nonzero;stroke:none"
             d="m 0,0 c 0.99,0 1.31,-0.288 1.31,-1.279 v -20.129 c 0,-0.991 -0.32,-1.279 -1.31,-1.279 h -2.396 c -0.992,0 -1.279,0.352 -1.279,1.279 v 7.253 c 0,2.045 0.352,4.441 1.055,7.188 h -0.288 c -0.639,-2.108 -1.47,-4.089 -2.525,-5.942 l -2.268,-4.058 c -0.383,-0.671 -0.671,-0.927 -1.438,-0.927 h -1.469 c -0.799,0 -1.086,0.192 -1.47,0.927 l -2.301,4.058 c -0.927,1.533 -1.693,3.514 -2.364,5.942 h -0.287 c 0.638,-2.715 0.958,-5.143 0.958,-7.221 v -7.22 c 0,-0.927 -0.287,-1.279 -1.279,-1.279 h -2.268 c -0.99,0 -1.31,0.352 -1.31,1.279 v 20.129 c 0,0.927 0.32,1.279 1.31,1.279 h 2.077 c 1.022,0 1.342,-0.192 1.821,-0.959 l 5.848,-10.8 5.879,10.768 C -3.515,-0.129 -3.26,0 -2.269,0 Z" /></g><g
           transform="translate(52.5088,37.8249)"
           id="g44"><path
             id="path46"
             style="fill:#0b558c;fill-opacity:1;fill-rule:nonzero;stroke:none"
             d="m 0,0 c 0.99,0 1.31,-0.32 1.31,-1.311 v -20.066 c 0,-0.99 -0.32,-1.31 -1.31,-1.31 h -2.588 c -0.991,0 -1.31,0.32 -1.31,1.31 v 7.254 c 0,1.15 0,1.917 0.095,2.747 0.065,0.575 0.032,0.735 0.16,1.343 0.096,0.607 0.064,0.607 0.224,1.309 0.096,0.352 0.128,0.576 0.16,0.671 0.031,0.065 0.352,1.533 0.383,1.662 h -0.191 c -0.512,-1.438 -0.959,-2.524 -1.311,-3.291 -0.383,-0.798 -0.958,-1.821 -1.757,-3.067 l -5.847,-9.33 c -0.224,-0.416 -0.639,-0.608 -1.247,-0.608 h -2.715 c -0.991,0 -1.31,0.32 -1.31,1.31 v 20.066 c 0,0.991 0.319,1.311 1.31,1.311 h 2.589 c 0.99,0 1.309,-0.32 1.309,-1.311 v -7.253 c 0,-1.725 -0.063,-3.036 -0.191,-3.898 -0.128,-0.894 -0.416,-2.173 -0.831,-3.834 h 0.191 c 0.48,1.405 0.927,2.525 1.343,3.355 0.415,0.831 0.99,1.885 1.789,3.163 l 5.783,9.171 C -3.706,-0.192 -3.291,0 -2.716,0 Z" /></g><g
           transform="translate(74.3623,37.8249)"
           id="g48"><path
             id="path50"
             style="fill:#0b558c;fill-opacity:1;fill-rule:nonzero;stroke:none"
             d="m 0,0 c 0.991,0 1.278,-0.32 1.278,-1.311 v -20.066 c 0,-0.99 -0.287,-1.31 -1.278,-1.31 h -2.588 c -0.99,0 -1.309,0.32 -1.309,1.31 v 16.648 h -7.541 v -16.648 c 0,-0.99 -0.32,-1.31 -1.31,-1.31 h -2.589 c -0.99,0 -1.309,0.32 -1.309,1.31 v 20.066 c 0,0.991 0.319,1.311 1.309,1.311 z" /></g><g
           transform="translate(97.5908,16.5124)"
           id="g52"><path
             id="path54"
             style="fill:#0b558c;fill-opacity:1;fill-rule:nonzero;stroke:none"
             d="m 0,0 c 0.479,-0.767 0.224,-1.374 -0.703,-1.374 h -2.556 c -1.661,0 -2.14,0.191 -2.62,1.183 l -3.004,6.07 c -0.734,1.502 -1.309,1.917 -3.098,1.917 h -0.832 v -7.86 c 0,-0.991 -0.319,-1.31 -1.309,-1.31 h -2.589 c -0.99,0 -1.31,0.319 -1.31,1.31 v 20.066 c 0,0.99 0.32,1.31 1.31,1.31 h 2.589 c 0.99,0 1.309,-0.32 1.309,-1.31 v -7.541 h 0.511 0.288 l 5.656,7.765 c 0.671,0.926 1.022,1.086 2.556,1.086 h 2.78 c 0.894,0 1.15,-0.607 0.639,-1.279 l -6.614,-8.882 c 1.086,-0.607 2.045,-1.725 2.907,-3.355 z" /></g><g
           transform="translate(131.8555,50.6872)"
           id="g56"><path
             id="path58"
             style="fill:#0b558c;fill-opacity:1;fill-rule:evenodd;stroke:none"
             d="m 0,0 v 1.818 c 0,0.734 0.587,1.358 1.357,1.358 h 3.267 c 0.733,0 1.357,-0.624 1.357,-1.358 V 0 Z m 16.11,0 h -6.091 v 1.818 c 0,2.973 -2.423,5.395 -5.395,5.395 H 1.357 c -2.971,0 -5.394,-2.422 -5.394,-5.395 V 0 h -6.128 c -1.981,0 -3.56,-1.578 -3.56,-3.56 v -1.945 l 0.551,-0.257 c 3.56,-1.687 7.266,-2.788 11.082,-3.339 0.111,1.909 1.689,3.413 3.597,3.413 H 4.44 c 1.909,0 3.487,-1.504 3.596,-3.413 3.78,0.514 7.524,1.615 11.083,3.339 l 0.55,0.258 V -3.56 C 19.67,-1.578 18.055,0 16.11,0" /></g><g
           transform="translate(139.9287,38.4303)"
           id="g60"><path
             id="path62"
             style="fill:#050606;fill-opacity:1;fill-rule:evenodd;stroke:none"
             d="m 0,0 c 0,-1.981 -1.614,-3.597 -3.597,-3.597 h -2.971 c -1.982,0 -3.597,1.616 -3.597,3.597 v 0.44 c -3.963,0.514 -7.854,1.615 -11.596,3.34 V -8.771 c 0,-1.981 1.577,-3.559 3.56,-3.559 H 8.037 c 1.982,0 3.56,1.578 3.56,3.559 V 3.78 C 7.854,2.055 3.964,0.954 0,0.44 Z" /></g><g
           transform="translate(136.2959,37.5134)"
           id="g64"><path
             id="path66"
             style="fill:#050606;fill-opacity:1;fill-rule:evenodd;stroke:none"
             d="M 0,0 C 0.514,0 0.917,0.403 0.917,0.917 V 3.853 C 0.917,4.366 0.514,4.771 0,4.771 h -2.936 c -0.514,0 -0.918,-0.405 -0.918,-0.918 V 0.917 C -3.854,0.403 -3.45,0 -2.936,0 Z" /></g></g></g></g></svg>