<svg width="20" height="20" viewBox="0 0 20 20" fill="none" xmlns="http://www.w3.org/2000/svg">
<path fill-rule="evenodd" clip-rule="evenodd" d="M5 0C2.23858 0 0 2.23858 0 5V15C0 17.7614 2.23858 20 5 20H15C17.7614 20 20 17.7614 20 15V5C20 2.23858 17.7614 0 15 0H5ZM14.8553 5.78111C14.7048 7.36236 14.0536 11.1996 13.7222 12.9706C13.5821 13.72 13.306 13.9713 13.0388 13.9958C12.579 14.0382 12.2067 13.7728 11.7924 13.4774C11.6835 13.3998 11.5717 13.3201 11.4547 13.2434C10.9954 12.9423 10.6404 12.7006 10.2845 12.4582C9.95839 12.2361 9.63152 12.0135 9.22299 11.7443C8.37339 11.1844 8.72886 10.8416 9.20309 10.3843C9.27995 10.3102 9.35993 10.2331 9.4384 10.1516C9.47339 10.1152 9.64455 9.95608 9.88585 9.73175C10.66 9.01203 12.1561 7.62114 12.1938 7.46018C12.2 7.43377 12.2059 7.33519 12.1473 7.28341C12.0887 7.23164 12.0026 7.24918 11.9403 7.26325C11.852 7.2833 10.446 8.21263 7.72219 10.0512C7.32313 10.3253 6.96165 10.4588 6.63775 10.4518C6.2807 10.4441 5.59388 10.2499 5.08328 10.0839C5.0083 10.0596 4.93516 10.0366 4.86457 10.0144C4.34559 9.8512 3.96447 9.73137 4.00263 9.42704C4.02521 9.24693 4.2732 9.06279 4.74658 8.87462C7.6618 7.60451 9.60572 6.76715 10.5784 6.36252C13.3555 5.2074 13.9325 5.00676 14.3086 5.00006C14.3914 4.99869 14.5763 5.01918 14.6961 5.11639C14.7758 5.18565 14.8266 5.28229 14.8385 5.3872C14.8588 5.51746 14.8644 5.64959 14.8553 5.78111Z" fill="#0B558C"/>
</svg>
